<?xml version="1.0" encoding="utf-8"?><svg xmlns="http://www.w3.org/2000/svg" xmlns:xlink="http://www.w3.org/1999/xlink"><symbol viewBox="0 0 32 24" id="drag_objects" xmlns="http://www.w3.org/2000/svg"><g clip-path="url(#aa)"><path d="M17.253 14.378V2.242c0-1.087.633-1.913 1.646-2.174 1.28-.327 2.569.559 2.69 1.84.016.156.023.312.023.476V7.81c.602-.402 1.22-.558 1.89-.394.678.164 1.159.573 1.47 1.176 1.334-1.161 3.148-.573 3.666.901.077-.045.145-.082.206-.127 1.288-.804 2.964-.03 3.132 1.46.008.067.015.126.015.193-.007 2.264.046 4.534-.045 6.798-.122 2.97-2.645 5.62-5.662 6.067-.458.067-.93.105-1.387.105-1.387 0-2.782.044-4.161-.052-2.233-.157-3.978-1.214-5.136-3.075-1.38-2.219-2.675-4.49-4.009-6.738-.137-.23-.281-.462-.411-.7-.389-.722-.13-1.549.602-1.936 1.593-.856 3.421-.372 4.359 1.147.358.58.693 1.169 1.044 1.757.03-.008.053-.008.068-.015ZM1 5.778 2.5 2M1 5.778 4 7.5M1 5.778C4.545 4.11 10 4 14 6.333"/></g><defs><clipPath id="aa"><path d="M0 0h32v24H0z"/></clipPath></defs></symbol><symbol viewBox="0 0 25 24" id="rotate_window" xmlns="http://www.w3.org/2000/svg"><path d="M.5 13.307c.006-.006.018-.006.018-.012.217-.434.51-.616.874-.534.394.082.593.381.61.874.1 3.17 1.398 5.723 3.922 7.648.053.04.112.082.223.158-.052-.252-.088-.452-.135-.651-.076-.364-.158-.728-.234-1.098-.094-.446.146-.833.569-.927.4-.088.798.164.892.598.253 1.15.5 2.301.74 3.451.1.47-.211.875-.705.91-1.256.082-2.506.153-3.762.229-.118.006-.23.03-.347.047h-.61c-.012-.012-.018-.03-.03-.035-.41-.194-.593-.505-.516-.863.082-.37.364-.587.804-.61l.957-.053c.334-.024.663-.047 1.045-.07-.094-.083-.147-.136-.206-.183-2.113-1.784-3.428-4.026-3.933-6.743C.6 15.033.56 14.615.5 14.199v-.892Zm14.112 8.668c-.464-.006-.834-.211-1.156-.534a698.61 698.61 0 0 0-2.983-2.981 4431.793 4431.793 0 0 0-7.42-7.425c-.47-.47-.68-1.015-.44-1.655.082-.229.229-.446.399-.622 2.072-2.09 4.156-4.167 6.24-6.25.687-.687 1.574-.67 2.278.04l9.275 9.274 1.145 1.144c.699.71.699 1.59-.006 2.295-2.06 2.06-4.12 4.12-6.175 6.18-.318.329-.687.528-1.157.534Zm4.239-19.409c.118.54.23 1.04.329 1.544.035.164.07.34.047.505a.722.722 0 0 1-.687.622.757.757 0 0 1-.78-.61c-.112-.488-.212-.975-.318-1.462-.14-.646-.282-1.297-.417-1.943-.111-.522.182-.921.717-.956C19.209.178 20.67.084 22.139.002c.645-.036 1.05.545.774 1.085-.14.276-.381.394-.686.411-.587.03-1.169.065-1.756.1-.082.006-.164.018-.281.03.293.257.557.48.81.721 1.837 1.778 2.976 3.927 3.363 6.456.077.505.106 1.021.136 1.538.023.534-.282.886-.74.892-.452.006-.752-.329-.758-.857-.035-1.92-.563-3.686-1.626-5.288-.61-.91-1.708-2.025-2.524-2.524Z"/></symbol></svg>