<svg width="32" height="24" viewBox="0 0 32 24" fill="none" xmlns="http://www.w3.org/2000/svg">
<g clip-path="url(#clip0_626_139)">
<path d="M17.2534 14.378C17.2534 14.2738 17.2534 14.1621 17.2534 14.0579C17.2534 10.1194 17.2534 6.18094 17.2534 2.24247C17.2534 1.15548 17.8859 0.329066 18.8994 0.0684863C20.1797 -0.2591 21.4675 0.626872 21.5895 1.90744C21.6047 2.06378 21.6123 2.22013 21.6123 2.38392C21.6123 4.06652 21.6123 5.74913 21.6123 7.42428C21.6123 7.53596 21.6123 7.64763 21.6123 7.81143C22.2143 7.40939 22.8316 7.25304 23.5022 7.41684C24.1804 7.58063 24.6605 7.99011 24.9729 8.59317C26.3065 7.43173 28.1202 8.01989 28.6384 9.49403C28.7146 9.44936 28.7832 9.41213 28.8441 9.36746C30.132 8.56339 31.8085 9.33768 31.9761 10.8267C31.9837 10.8937 31.9914 10.9533 31.9914 11.0203C31.9837 13.2836 32.0371 15.5544 31.9456 17.8177C31.8237 20.7883 29.3013 23.4388 26.2837 23.8855C25.8264 23.9525 25.354 23.9897 24.8967 23.9897C23.5098 23.9897 22.1153 24.0344 20.736 23.9376C18.5032 23.7812 16.7581 22.724 15.5998 20.8628C14.2205 18.6441 12.925 16.3733 11.5914 14.1249C11.4543 13.8941 11.3095 13.6633 11.1799 13.4251C10.7913 12.7029 11.0504 11.8765 11.782 11.4893C13.3746 10.6331 15.2035 11.1171 16.1408 12.6359C16.499 13.2166 16.8343 13.8048 17.1848 14.3929C17.2153 14.3855 17.2382 14.3855 17.2534 14.378Z" fill="white"/>
<path d="M1 5.77778L2.5 2M1 5.77778L4 7.5M1 5.77778C4.54545 4.11111 10 4 14 6.33333" stroke="white" stroke-linecap="round" stroke-linejoin="round"/>
</g>
<defs>
<clipPath id="clip0_626_139">
<rect width="32" height="24" fill="white"/>
</clipPath>
</defs>
</svg>
