<svg width="25" height="24" viewBox="0 0 25 24" fill="none" xmlns="http://www.w3.org/2000/svg">
<path d="M0.5 13.3066C0.50587 13.3007 0.517611 13.3007 0.517611 13.2949C0.734818 12.8606 1.02834 12.6786 1.39231 12.7608C1.78563 12.843 1.98522 13.1423 2.00283 13.6353C2.10263 16.8046 3.4 19.3576 5.92429 21.2826C5.97713 21.3237 6.03583 21.3648 6.14737 21.4411C6.09453 21.1887 6.05931 20.9892 6.01235 20.7896C5.93603 20.4258 5.85385 20.0619 5.77753 19.6921C5.6836 19.2461 5.92429 18.8587 6.34696 18.7648C6.74615 18.6768 7.14534 18.9291 7.23927 19.3635C7.4917 20.5138 7.73826 21.6641 7.97895 22.8144C8.07875 23.284 7.76761 23.6889 7.27449 23.7241C6.01822 23.8063 4.76781 23.8767 3.51154 23.953C3.39413 23.9589 3.28259 23.9824 3.16518 24C2.95972 24 2.76012 24 2.55466 24C2.54292 23.9883 2.53704 23.9706 2.5253 23.9648C2.11437 23.7711 1.93239 23.46 2.0087 23.102C2.09089 22.7323 2.37267 22.5151 2.81296 22.4917C3.12996 22.474 3.45283 22.4564 3.76984 22.4388C4.10445 22.4154 4.4332 22.3919 4.81478 22.3684C4.72085 22.2862 4.66802 22.2334 4.60931 22.1865C2.49595 20.4023 1.18097 18.1603 0.676113 15.4429C0.599798 15.0321 0.558704 14.6154 0.5 14.1987C0.5 13.8994 0.5 13.6001 0.5 13.3066Z" fill="white"/>
<path d="M14.612 21.9751C14.1483 21.9692 13.7784 21.7638 13.4555 21.441C12.4634 20.4433 11.4713 19.4514 10.4734 18.4596C8.00189 15.9828 5.53044 13.5061 3.05311 11.0352C2.58347 10.5657 2.37214 10.0199 2.61282 9.38017C2.69501 9.15127 2.84177 8.93412 3.01201 8.75805C5.08428 6.66867 7.16829 4.59104 9.2523 2.50753C9.93914 1.82085 10.8256 1.83846 11.53 2.54861C14.6238 5.64159 17.7175 8.73457 20.8053 11.8217C21.1869 12.2032 21.5685 12.5847 21.9501 12.9661C22.6487 13.6763 22.6487 14.5567 21.9442 15.2609C19.8837 17.321 17.8232 19.381 15.7685 21.441C15.4515 21.7697 15.0817 21.9692 14.612 21.9751Z" fill="white"/>
<path d="M18.8511 2.56629C18.9686 3.10624 19.0801 3.60511 19.1799 4.10985C19.2151 4.27418 19.2503 4.45025 19.2269 4.61458C19.1858 4.96673 18.8805 5.21909 18.54 5.2367C18.1702 5.25431 17.8473 5.01368 17.7592 4.62632C17.6477 4.13919 17.5479 3.65206 17.4422 3.16493C17.3013 2.51934 17.1605 1.86788 17.0254 1.22228C16.9139 0.69994 17.2074 0.300846 17.7416 0.265631C19.2092 0.177596 20.671 0.0836913 22.1386 0.00152487C22.7843 -0.0336893 23.1894 0.547345 22.9135 1.0873C22.7726 1.36314 22.5319 1.48052 22.2267 1.49813C21.6396 1.52747 21.0584 1.56269 20.4714 1.5979C20.3892 1.60377 20.307 1.61551 20.1896 1.62725C20.4831 1.88548 20.7473 2.10851 20.9997 2.34914C22.8372 4.12746 23.976 6.27552 24.3635 8.80507C24.4398 9.30981 24.4692 9.82629 24.4985 10.3428C24.522 10.8768 24.2167 11.229 23.7588 11.2349C23.3068 11.2407 23.0074 10.9062 23.0015 10.378C22.9663 8.4588 22.438 6.69222 21.3754 5.08998C20.7649 4.18028 19.6671 3.06516 18.8511 2.56629Z" fill="white"/>
</svg>
